# This file uses centimeters as units for non-parametric coordinates.

mtllib LizardTail.mtl
g default
v -0.374143 -0.055198 0.050284
v 0.374143 -0.055198 0.050284
v -0.374143 0.157034 -0.059523
v 0.374143 0.157034 -0.059523
v -0.061364 -0.807063 -1.692933
v 0.070144 -0.807063 -1.692933
v -0.061364 -0.886062 -1.692933
v 0.070144 -0.886062 -1.692933
v -0.277828 -0.252910 -0.459899
v 0.277828 -0.252910 -0.459899
v 0.277828 -0.461495 -0.345716
v -0.277828 -0.461495 -0.345716
v -0.238004 -0.728982 -0.832914
v 0.238003 -0.728982 -0.832914
v 0.238003 -0.519724 -0.859874
v -0.238004 -0.519724 -0.859874
v 0.000000 -0.134130 0.144352
v 0.000000 -0.526333 -0.268446
v 0.000000 -0.788421 -0.762076
v 0.004441 -0.916563 -1.777012
v 0.004441 -0.837564 -1.777012
v 0.000000 -0.519724 -0.859874
v 0.000000 -0.252910 -0.459899
v 0.000000 0.220808 -0.059523
v -0.187071 -0.124667 0.133074
v -0.138914 -0.503329 -0.295861
v -0.119002 -0.769687 -0.784403
v -0.028487 -0.901911 -1.731645
v -0.028487 -0.822912 -1.731645
v -0.119002 -0.519724 -0.859874
v -0.138914 -0.252910 -0.459899
v -0.187071 0.220808 -0.059523
v 0.166697 -0.496845 -0.303588
v 0.224486 -0.116774 0.123667
v 0.224486 0.220808 -0.059523
v 0.166697 -0.252910 -0.459899
v 0.142802 -0.519724 -0.859874
v 0.043843 -0.822912 -1.731645
v 0.043843 -0.901911 -1.731645
v 0.142802 -0.763743 -0.791487
vt 0.500000 0.250000
vt 0.500000 0.000000
vt 0.575000 0.000000
vt 0.575000 0.250000
vt 0.500000 0.380000
vt 0.500000 0.300000
vt 0.575000 0.300000
vt 0.575000 0.380000
vt 0.500000 0.750000
vt 0.500000 0.500000
vt 0.575000 0.500000
vt 0.575000 0.750000
vt 0.500000 0.950000
vt 0.500000 0.870000
vt 0.575000 0.870000
vt 0.575000 0.950000
vt 0.675000 0.250000
vt 0.675000 0.000000
vt 0.755000 0.000000
vt 0.755000 0.250000
vt 0.245000 0.250000
vt 0.245000 0.000000
vt 0.325000 0.000000
vt 0.325000 0.250000
vt 0.625000 0.000000
vt 0.625000 0.250000
vt 0.500000 1.000000
vt 0.575000 1.000000
vt 0.375000 0.000000
vt 0.375000 0.250000
vt 0.875000 0.000000
vt 0.875000 0.250000
vt 0.125000 0.000000
vt 0.125000 0.250000
vt 0.437500 1.000000
vt 0.437500 0.950000
vt 0.437500 0.870000
vt 0.437500 0.750000
vt 0.437500 0.500000
vt 0.437500 0.380000
vt 0.437500 0.300000
vt 0.437500 0.250000
vt 0.437500 0.000000
vt 0.375000 0.950000
vt 0.375000 1.000000
vt 0.375000 0.870000
vt 0.375000 0.750000
vt 0.375000 0.500000
vt 0.375000 0.380000
vt 0.375000 0.300000
vt 0.625000 0.950000
vt 0.625000 1.000000
vt 0.625000 0.300000
vt 0.625000 0.380000
vt 0.625000 0.500000
vt 0.625000 0.750000
vt 0.625000 0.870000
vn 0.021351 0.487776 0.872708
vn 0.021351 0.487776 0.872708
vn 0.021351 0.487776 0.872708
vn 0.021351 0.487776 0.872708
vn -0.000009 0.899197 -0.437544
vn 0.000000 0.723068 -0.690776
vn 0.037223 0.724239 -0.688544
vn -0.002510 0.898044 -0.439899
vn 0.754999 -0.000003 -0.655726
vn 0.754999 -0.000003 -0.655726
vn 0.787651 -0.000003 -0.616122
vn 0.788263 -0.000003 -0.615338
vn 0.031060 -0.806502 0.590415
vn 0.026345 -0.945410 0.324817
vn 0.301070 -0.909863 0.285492
vn 0.316314 -0.774345 0.548029
vn 0.884783 0.251898 -0.392055
vn 0.887523 -0.420492 0.188388
vn 0.906615 -0.421735 0.013749
vn 0.918748 0.281526 -0.276847
vn -0.886493 0.344646 -0.308787
vn -0.872443 -0.487365 0.036304
vn -0.850481 -0.470860 0.234461
vn -0.842440 0.311744 -0.439444
vn 0.000000 0.723068 -0.690776
vn 0.000000 0.645507 -0.763754
vn 0.057156 0.648198 -0.759323
vn 0.037223 0.724239 -0.688544
vn 0.949377 -0.304876 0.075721
vn 0.887523 -0.420492 0.188388
vn 0.884783 0.251898 -0.392055
vn 0.755882 0.341130 -0.558813
vn 0.031168 -0.741820 0.669874
vn 0.031060 -0.806502 0.590415
vn 0.316314 -0.774345 0.548029
vn 0.330752 -0.713796 0.617332
vn -0.842440 0.311744 -0.439444
vn -0.850481 -0.470860 0.234461
vn -0.930549 -0.345552 0.121131
vn -0.697389 0.392023 -0.599973
vn 0.026345 -0.945410 0.324817
vn 0.032765 -0.991758 0.123865
vn 0.222716 -0.967542 0.119415
vn 0.301070 -0.909863 0.285492
vn 0.918748 0.281526 -0.276847
vn 0.906615 -0.421735 0.013749
vn 0.885353 -0.454558 -0.097612
vn 0.771782 0.532156 -0.348084
vn 0.000472 0.944591 -0.328250
vn -0.000009 0.899197 -0.437544
vn -0.002510 0.898044 -0.439899
vn 0.003296 0.944718 -0.327869
vn -0.848973 -0.520776 -0.089654
vn -0.872443 -0.487365 0.036304
vn -0.886493 0.344646 -0.308787
vn -0.710209 0.599713 -0.368709
vn -0.329040 -0.713994 0.618017
vn -0.317118 -0.774113 0.547892
vn 0.031060 -0.806502 0.590415
vn 0.031168 -0.741820 0.669874
vn -0.317118 -0.774113 0.547892
vn -0.303731 -0.907719 0.289472
vn 0.026345 -0.945410 0.324817
vn 0.031060 -0.806502 0.590415
vn -0.303731 -0.907719 0.289472
vn -0.226966 -0.967035 0.115453
vn 0.032765 -0.991758 0.123865
vn 0.026345 -0.945410 0.324817
vn -0.787233 -0.000003 -0.616655
vn -0.787721 -0.000003 -0.616032
vn -0.809295 -0.000003 -0.587403
vn -0.809295 -0.000003 -0.587403
vn -0.003220 0.944755 -0.327761
vn 0.002474 0.898479 -0.439009
vn -0.000009 0.899197 -0.437544
vn 0.000472 0.944591 -0.328250
vn 0.002474 0.898479 -0.439009
vn -0.037855 0.726822 -0.685782
vn 0.000000 0.723068 -0.690776
vn -0.000009 0.899197 -0.437544
vn -0.037855 0.726822 -0.685782
vn -0.059359 0.650978 -0.756772
vn 0.000000 0.645507 -0.763754
vn 0.000000 0.723068 -0.690776
vn -0.076396 0.485430 0.870932
vn -0.062324 0.487204 0.871062
vn 0.004864 0.490100 0.871653
vn 0.005263 0.490045 0.871681
vn -0.850481 -0.470860 0.234461
vn -0.317118 -0.774113 0.547892
vn -0.329040 -0.713994 0.618017
vn -0.930549 -0.345552 0.121131
vn -0.872443 -0.487365 0.036304
vn -0.303731 -0.907719 0.289472
vn -0.317118 -0.774113 0.547892
vn -0.850481 -0.470860 0.234461
vn -0.848973 -0.520776 -0.089654
vn -0.226966 -0.967035 0.115453
vn -0.303731 -0.907719 0.289472
vn -0.872443 -0.487365 0.036304
vn -0.710209 0.599713 -0.368709
vn -0.787721 -0.000003 -0.616032
vn -0.787233 -0.000003 -0.616655
vn -0.848973 -0.520776 -0.089654
vn -0.886493 0.344646 -0.308787
vn 0.002474 0.898479 -0.439009
vn -0.003220 0.944755 -0.327761
vn -0.710209 0.599713 -0.368709
vn -0.842440 0.311744 -0.439444
vn -0.037855 0.726822 -0.685782
vn 0.002474 0.898479 -0.439009
vn -0.886493 0.344646 -0.308787
vn -0.697389 0.392023 -0.599973
vn -0.059359 0.650978 -0.756772
vn -0.037855 0.726822 -0.685782
vn -0.842440 0.311744 -0.439444
vn -0.184069 0.468520 0.864065
vn -0.062324 0.487204 0.871062
vn -0.076396 0.485430 0.870932
vn -0.184069 0.468520 0.864065
vn 0.330752 -0.713796 0.617332
vn 0.316314 -0.774345 0.548029
vn 0.887523 -0.420492 0.188388
vn 0.949377 -0.304876 0.075721
vn 0.072323 0.482105 0.873123
vn 0.059079 0.483703 0.873236
vn 0.214695 0.459326 0.861931
vn 0.214695 0.459326 0.861931
vn 0.037223 0.724239 -0.688544
vn 0.057156 0.648198 -0.759323
vn 0.755882 0.341130 -0.558813
vn 0.884783 0.251898 -0.392055
vn -0.002510 0.898044 -0.439899
vn 0.037223 0.724239 -0.688544
vn 0.884783 0.251898 -0.392055
vn 0.918748 0.281526 -0.276847
vn 0.003296 0.944718 -0.327869
vn -0.002510 0.898044 -0.439899
vn 0.918748 0.281526 -0.276847
vn 0.771782 0.532156 -0.348084
vn 0.788263 -0.000003 -0.615338
vn 0.787651 -0.000003 -0.616122
vn 0.771782 0.532156 -0.348084
vn 0.885353 -0.454558 -0.097612
vn 0.301070 -0.909863 0.285492
vn 0.222716 -0.967542 0.119415
vn 0.885353 -0.454558 -0.097612
vn 0.906615 -0.421735 0.013749
vn 0.316314 -0.774345 0.548029
vn 0.301070 -0.909863 0.285492
vn 0.906615 -0.421735 0.013749
vn 0.887523 -0.420492 0.188388
s off
g LizardTail
usemtl extraStuff:initialShadingGroup
f 24/1/1 17/2/2 34/3/3 35/4/4
f 22/5/5 23/6/6 36/7/7 37/8/8
f 20/9/9 21/10/10 38/11/11 39/12/12
f 18/13/13 19/14/14 40/15/15 33/16/16
f 10/17/17 11/18/18 14/19/19 15/20/20
f 16/21/21 13/22/22 12/23/23 9/24/24
f 23/6/25 24/1/26 35/4/27 36/7/28
f 2/25/29 11/18/30 10/17/31 4/26/32
f 17/27/33 18/13/34 33/16/35 34/28/36
f 9/24/37 12/23/38 1/29/39 3/30/40
f 19/14/41 20/9/42 39/12/43 40/15/44
f 15/20/45 14/19/46 8/31/47 6/32/48
f 21/10/49 22/5/50 37/8/51 38/11/52
f 7/33/53 13/22/54 16/21/55 5/34/56
f 25/35/57 26/36/58 18/13/59 17/27/60
f 26/36/61 27/37/62 19/14/63 18/13/64
f 27/37/65 28/38/66 20/9/67 19/14/68
f 28/38/69 29/39/70 21/10/71 20/9/72
f 29/39/73 30/40/74 22/5/75 21/10/76
f 30/40/77 31/41/78 23/6/79 22/5/80
f 31/41/81 32/42/82 24/1/83 23/6/84
f 32/42/85 25/43/86 17/2/87 24/1/88
f 12/44/89 26/36/90 25/35/91 1/45/92
f 13/46/93 27/37/94 26/36/95 12/44/96
f 7/47/97 28/38/98 27/37/99 13/46/100
f 5/48/101 29/39/102 28/38/103 7/47/104
f 16/49/105 30/40/106 29/39/107 5/48/108
f 9/50/109 31/41/110 30/40/111 16/49/112
f 3/30/113 32/42/114 31/41/115 9/50/116
f 1/29/117 25/43/118 32/42/119 3/30/120
f 34/28/121 33/16/122 11/51/123 2/52/124
f 35/4/125 34/3/126 2/25/127 4/26/128
f 36/7/129 35/4/130 4/26/131 10/53/132
f 37/8/133 36/7/134 10/53/135 15/54/136
f 38/11/137 37/8/138 15/54/139 6/55/140
f 39/12/141 38/11/142 6/55/143 8/56/144
f 40/15/145 39/12/146 8/56/147 14/57/148
f 33/16/149 40/15/150 14/57/151 11/51/152
